<svg xmlns="http://www.w3.org/2000/svg" width="24" height="24" viewBox="0 0 24 24" fill="none">
  <path d="M9.06338 18.3386C8.94365 16.782 8.94364 15.2255 8.82391 13.5492C8.82391 12.711 8.4647 12.1123 7.50682 12.1123C6.90814 12.1123 6.30945 12.232 6.18972 11.3939C6.06998 10.3163 5.83051 9.11892 6.18972 8.0413C6.18972 7.92156 6.66866 7.68211 6.90814 7.68211C8.70417 8.04131 9.06338 7.08341 9.06338 5.64658C9.06338 1.81503 12.2963 -0.220496 16.487 0.018976C17.6844 0.138712 17.6844 1.09661 17.6844 1.93476C17.5646 2.77291 18.0436 3.97028 16.487 3.97028C15.1699 3.85055 14.212 4.3295 14.212 5.88607C14.212 6.96369 14.3318 7.80182 15.6489 7.92156C17.5646 8.04129 17.2054 9.35841 17.2054 10.6755C17.3252 12.1123 16.6067 12.5913 15.2897 12.5913C13.9726 12.5913 13.7331 13.3097 13.7331 14.507C13.7331 17.1412 13.7331 19.6557 13.6133 22.2899C13.4936 23.9662 13.1344 24.0859 10.8594 23.9662C9.30285 23.9662 9.06338 23.2478 9.18312 21.9307C8.94364 20.8531 8.94365 19.6557 9.06338 18.3386Z" fill="#635D67"/>
</svg>