<svg xmlns="http://www.w3.org/2000/svg" width="24" height="24" viewBox="0 0 24 24" fill="none">
  <path d="M19.758 3.87657C19.1184 4.6399 18.4788 5.09787 17.9991 5.70853C17.1996 6.7772 16.5599 6.92989 15.2807 6.16656C12.2425 4.48723 9.68408 5.25053 7.12562 7.99853C5.20678 9.98319 5.04688 13.0366 6.48601 15.4792C8.56476 18.8379 15.6005 18.9905 17.8392 15.7845C18.4788 14.8685 18.159 14.1052 16.8798 13.9525C16.0802 13.7999 15.1208 14.1052 14.1614 13.9525C12.5623 13.7999 11.9227 13.0365 12.0826 11.5099C12.0826 9.98322 13.202 9.83054 14.4812 9.83054C16.7199 9.83054 18.7986 9.83055 21.0372 9.98322C23.4358 10.1359 23.5957 10.4412 23.116 12.7312C23.116 13.0365 22.7962 13.4945 22.7962 13.7999C21.9967 17.7692 20.5575 21.1279 16.0802 22.3492C11.2831 23.5705 6.96571 22.5019 3.44783 19.2959C-0.389859 15.7845 -0.22996 7.99854 3.76763 4.33455C8.56474 -0.398109 15.1208 -0.550757 19.758 3.87657Z" fill="#635D67"/>
</svg>