<svg xmlns="http://www.w3.org/2000/svg" width="24" height="24" viewBox="0 0 24 24" fill="#495ECA">
  <path d="M11.5047 23.1627C9.48908 23.1627 7.47348 23.2834 5.57645 23.1627C2.84947 22.9214 1.78238 21.956 1.30812 19.0597C0.7153 15.6808 0.478178 12.4225 0.833871 9.04351C0.952436 7.83673 1.07099 6.50927 1.30812 5.3025C1.66382 2.76827 2.7309 1.68217 5.22076 1.07879C6.28784 0.837432 7.23636 0.71674 8.30344 0.837418C10.5562 0.958095 12.8089 0.958088 15.0616 0.716733C16.1287 0.596055 17.0772 0.71674 18.1443 0.837418C20.1599 1.07877 21.5827 2.16489 21.8198 4.21641C22.5312 9.28486 23.124 14.3533 22.1755 19.4217C21.7012 21.8353 20.6341 22.8007 18.2629 23.2834C16.1287 23.4041 13.876 23.2834 11.5047 23.1627ZM11.9789 6.99197C9.25195 6.8713 6.88065 8.92283 6.64353 11.4571C6.4064 14.5947 8.30344 16.6462 11.5047 16.8875C13.9945 17.0082 16.3658 14.836 16.603 12.0604C16.8401 9.52622 14.7059 7.11265 11.9789 6.99197ZM19.3299 5.06113C19.2114 4.33706 18.8557 3.85435 18.0257 3.85435C17.0772 3.85435 16.603 4.45776 16.603 5.3025C16.603 6.14724 17.0772 6.75061 18.0257 6.75061C18.9742 6.62993 19.3299 6.02655 19.3299 5.06113Z" fill="#635D67"/>
</svg>