<svg xmlns="http://www.w3.org/2000/svg" width="24" height="24" viewBox="0 0 24 24" fill="none">
  <path d="M0.666748 13.3248C3.26397 11.672 5.15286 10.4914 7.1598 9.31087C11.882 6.71365 16.4862 4.11644 21.0904 1.28311C22.8612 0.220605 23.3334 0.456688 23.3334 2.58169C23.2154 4.11641 22.9792 5.5331 22.7431 7.06782C22.0348 11.4359 21.2084 15.8039 20.5001 20.172C20.264 21.4706 19.7917 21.8248 18.6112 21.1164C18.0209 20.7623 17.4306 20.6442 16.8404 20.4081C13.7709 19.1095 13.4168 19.1095 11.1737 21.5886C10.7015 22.0609 10.5834 22.7692 9.63898 22.8873C9.28481 20.6442 8.81259 18.6373 10.4654 16.6303C12.1181 14.5053 13.6529 12.4984 15.4237 10.3734C15.8959 9.78308 16.2501 9.1928 16.4862 8.48447C13.7709 10.2553 11.0556 12.1442 8.81259 14.5053C7.9862 15.4498 7.27787 15.5678 6.09731 15.0956C4.56259 14.5053 2.9098 14.0331 0.666748 13.3248Z" fill="#635D67 "/>
</svg>