<svg xmlns="http://www.w3.org/2000/svg" width="24" height="24" viewBox="0 0 24 24" fill="none">
  <path d="M12.7081 21.0209C9.31926 21.4574 6.63645 21.021 3.95363 20.73C1.27081 20.439 0.423609 19.566 0.282408 16.6561C0.141207 14.0372 0 11.2728 0 8.65391C0 5.30754 1.12961 4.1436 4.37723 3.70712C9.74286 2.97964 15.1085 3.41611 20.4741 4.14358C22.0273 4.28908 23.0157 5.01656 23.2981 6.617C24.1454 10.1089 24.1454 13.7462 23.7218 17.3836C23.4394 19.4205 21.8861 20.439 19.9093 20.73C17.5089 21.1664 14.8261 21.1664 12.7081 21.0209ZM9.31926 16.9471C12.0021 16.2196 14.2613 14.7647 16.3793 12.7278C14.1201 10.9818 11.8609 9.81786 9.03686 8.50841C9.03686 11.5638 8.75445 14.1827 9.31926 16.9471Z" fill="#635D67"/>
</svg>